<?xml version="1.0"?>
<svg width="128" height="128" xmlns="http://www.w3.org/2000/svg">
 <title>g3</title>

 <desc>Created with Sketch.</desc>
 <g>
  <title>background</title>
  <rect fill="#4c4c4c" id="canvas_background" height="130" width="130" y="-1" x="-1"/>
 </g>
 <g class="layer">
  <title>Layer 1</title>
  <g id="svg_1" fill-rule="evenodd" fill="none">
   <path transform="matrix(0.957699 0.287773 -0.287773 0.957699 20.585 -16.5223)" id="svg_2" fill="#2cb1f9" d="m67.757439,22.278889c-3.884579,0 -7.044674,3.113501 -7.044674,6.9396l0,8.693701c-2.862503,-2.1171 -4.727001,-5.4776 -4.727001,-9.266399c0,-6.3929 5.280998,-11.594196 11.771675,-11.594196c6.491905,0 11.772903,5.201296 11.772903,11.594196c0,3.788799 -1.864502,7.1493 -4.727005,9.266399l0,-8.693701c0,-3.826099 -3.161293,-6.9396 -7.045898,-6.9396l0,0zm-30.939476,46.04311c-1.560005,-1.036003 -3.437107,-1.412498 -5.284409,-1.058502c-1.847298,0.352806 -3.443897,1.394402 -4.496899,2.930901c-2.1724,3.171104 -1.3197,7.493103 1.832401,9.583099l6.921108,5.559799c-0.804604,0.171402 -1.6367,0.267204 -2.492809,0.267204c-6.491899,0 -11.7729,-5.201302 -11.7729,-11.5942c0,-6.393997 5.281,-11.59531 11.7729,-11.59531c6.339706,0 11.510704,4.964611 11.749905,11.152309l-8.229298,-5.2453l0,0zm67.600876,-7.289108c-2.054001,0 -3.899796,0.8759 -5.188499,2.261402c-0.143097,-3.703201 -3.2379,-6.673603 -7.032097,-6.673603c-2.057899,0 -3.907501,0.878101 -5.196304,2.268101c-0.227798,-3.625401 -3.285995,-6.508999 -7.024094,-6.508999c-2.046402,0 -3.885704,0.869202 -5.174507,2.245602l0,-15.571301c3.410805,-2.2467 5.662102,-6.072704 5.662102,-10.408302c0,-6.9013 -5.700996,-12.515196 -12.708,-12.515196c-4.225582,0 -7.964874,2.049397 -10.276875,5.184395c-0.017204,0.0158 -0.0378,0.0271 -0.052605,0.046301l-6.720795,8.8515c-0.154602,0.204 -0.112202,0.492599 0.0938,0.6448c0.083595,0.062 0.183098,0.091297 0.280399,0.091297c0.143097,0 0.2827,-0.063198 0.374298,-0.184898l4.027702,-5.304998c-0.272404,1.020199 -0.432701,2.084299 -0.432701,3.1868c0,4.335598 2.2514,8.161602 5.662102,10.408302l0,29.698509c0,2.996399 -1.595509,5.6399 -4.268002,7.071495c-2.673698,1.4328 -5.793705,1.314499 -8.347206,-0.312195l-0.648998,-0.413704l3.2402,-4.146202c0.156803,-0.202896 0.119102,-0.491501 -0.085796,-0.647095c-0.204899,-0.154404 -0.497902,-0.117203 -0.655804,0.084595l-3.287197,4.205902l-0.663803,-0.422798c0.001106,-0.055199 0.009106,-0.1082 0.009106,-0.1623c0,-6.902397 -5.701004,-12.516308 -12.707909,-12.516308c-2.3978,0 -4.6343,0.669598 -6.550301,1.810402l4.452297,-5.864204c0.154499,-0.203999 0.1133,-0.491497 -0.093796,-0.644798c-0.204903,-0.152199 -0.497902,-0.1105 -0.654701,0.093601c0,0 -7.7143,10.171608 -7.721199,10.181709c-1.3505,1.987396 -2.140301,4.373894 -2.140301,6.939598c0,6.901299 5.6999,12.515198 12.708,12.515198c1.175407,0 2.309696,-0.170197 3.3913,-0.466698l32.466282,26.081001c0.174004,0.139 0.383499,0.207001 0.590607,0.207001c0.271294,0 0.540199,-0.116005 0.725693,-0.339005c0.326202,-0.393997 0.266602,-0.974998 -0.133896,-1.295998l-40.353485,-32.412102c-2.364601,-1.571503 -2.9918,-4.744797 -1.395201,-7.074898c0.7726,-1.128403 1.9457,-1.892799 3.301996,-2.153198c1.357502,-0.260406 2.735512,0.016998 3.896107,0.787994c0,0 11.371101,7.237206 11.406605,7.259804c3.118896,1.936699 6.900494,2.061798 10.145302,0.323502c3.284897,-1.759705 5.244297,-5.008499 5.244297,-8.6903l0,-38.263712l0,-1.270401c0,-2.8104 2.321198,-5.0965 5.174477,-5.0965c2.853401,0 5.174599,2.2861 5.174599,5.0965l0,1.270401l0,32.118803c0,0.5084 0.4189,0.920998 0.936203,0.920998c0.516197,0 0.935097,-0.412598 0.935097,-0.920998l0,-3.288303c0,-2.810299 2.321106,-5.097599 5.174507,-5.097599c2.8545,0 5.175697,2.2873 5.175697,5.097599l0,4.240902c0,0.508404 0.417702,0.921009 0.935097,0.921009c0.517303,0 0.935104,-0.412605 0.935104,-0.921009c0,-2.810299 2.322296,-5.097599 5.1745,-5.097599c2.853302,0 5.1745,2.2873 5.1745,5.097599l0,4.495708c0,0.509499 0.4189,0.922096 0.936195,0.922096c0.517403,0 0.935104,-0.412598 0.935104,-0.922096l0,-0.083504c0,-2.810295 2.321198,-5.0965 5.174797,-5.0965c2.854004,0 5.175003,2.286205 5.175003,5.0965l0,19.766006c0,0.070999 -0.073997,7.241699 -2.973,13.724297c-0.208,0.466003 0.006996,1.009003 0.477997,1.214996c0.123001,0.054001 0.251999,0.078003 0.376999,0.078003c0.360001,0 0.703003,-0.205002 0.857002,-0.550003c3.055,-6.829895 3.129997,-14.149399 3.133003,-14.462799l0,-19.7705c0,-3.825996 -3.162003,-6.939606 -7.047005,-6.939606l0,0l0,0zm-50.545879,5.842812l2.457306,-3.146297c0.156792,-0.200714 0.119095,-0.49041 -0.0858,-0.645912c-0.203701,-0.153397 -0.497906,-0.118401 -0.655807,0.084503l-2.457397,3.146305c-0.156799,0.2006 -0.118999,0.490395 0.0858,0.645897c0.084801,0.064301 0.185505,0.094704 0.285103,0.094704c0.139599,0 0.279202,-0.060799 0.370796,-0.179199l0,0zm-8.335808,-28.625412c0.143112,0 0.282711,-0.064198 0.37431,-0.184799l3.418804,-4.502399c0.154499,-0.204105 0.112091,-0.491505 -0.093903,-0.644905c-0.207199,-0.150997 -0.499004,-0.109299 -0.654697,0.093601l-3.418804,4.502403c-0.154503,0.204102 -0.112099,0.491501 0.093903,0.644802c0.084694,0.062 0.183098,0.091297 0.280388,0.091297l0,0zm-11.777397,15.5116c0.141899,0 0.281506,-0.064301 0.37431,-0.186001l2.058998,-2.711197c0.154503,-0.2029 0.112202,-0.491501 -0.093803,-0.644802c-0.2061,-0.151001 -0.4991,-0.1105 -0.654694,0.093601l-2.059105,2.711098c-0.154503,0.204102 -0.113308,0.492702 0.093895,0.644802c0.0835,0.062 0.182003,0.092499 0.280399,0.092499l0,0z"/>
  </g>
 </g>
</svg>